<?xml version="1.0" encoding="utf-8"?>
<!-- Generator: Adobe Illustrator 15.1.0, SVG Export Plug-In . SVG Version: 6.00 Build 0)  -->
<!DOCTYPE svg PUBLIC "-//W3C//DTD SVG 1.1//EN" "http://www.w3.org/Graphics/SVG/1.1/DTD/svg11.dtd">
<svg version="1.1" id="Layer_1" xmlns="http://www.w3.org/2000/svg" xmlns:xlink="http://www.w3.org/1999/xlink" x="0px" y="0px"
	 width="449.315px" height="91.669px" viewBox="0 0 449.315 91.669" enable-background="new 0 0 449.315 91.669"
	 xml:space="preserve">
<g>
	<path fill="#414042" d="M30.845,22.243c1.819,1.73,3.104,3.426,3.855,5.085c0.75,1.661,1.126,3.583,1.126,5.767
		c0,4.004-1.524,7.394-4.573,10.168c-0.728,0.681-1.433,1.24-2.116,1.671c-0.682,0.433-1.433,0.774-2.251,1.024
		c-0.819,0.249-1.751,0.42-2.797,0.514c-1.048,0.089-2.298,0.135-3.753,0.135H8.394c-1.639,0-2.912-0.148-3.821-0.443
		c-0.91-0.297-1.774-0.898-2.594-1.811c-0.455-0.499-0.842-1.056-1.161-1.67c-0.317-0.615-0.544-1.24-0.682-1.876
		c-0.044-0.273-0.079-0.648-0.102-1.128C0.012,39.202,0,38.235,0,36.779V8.801C0.045,6.526,0.785,4.672,2.219,3.24
		C3.651,1.807,5.482,1.089,7.71,1.089h6.416c1.228,0,2.263,0.013,3.104,0.035c0.842,0.023,1.569,0.057,2.184,0.102
		c0.614,0.047,1.161,0.103,1.639,0.171c0.477,0.069,0.944,0.148,1.398,0.239c3.139,0.774,5.675,2.4,7.609,4.879
		c1.933,2.479,2.9,5.401,2.9,8.77c0,1.319-0.148,2.456-0.443,3.411C32.221,19.652,31.663,20.835,30.845,22.243 M14.944,18.695h1.773
		c1.047,0,1.775-0.124,2.185-0.376c0.409-0.249,0.614-0.691,0.614-1.328c0-0.638-0.228-1.093-0.682-1.366
		c-0.456-0.273-1.207-0.409-2.253-0.409h-1.638V18.695z M14.944,32.617h2.524c1.32,0,2.195-0.126,2.628-0.377
		c0.433-0.249,0.647-0.715,0.647-1.397s-0.262-1.172-0.784-1.467c-0.523-0.295-1.375-0.443-2.559-0.443h-2.457V32.617z"/>
	<path fill="#414042" d="M164.727,4.774c0.592-1.183,1.489-2.148,2.695-2.9c1.206-0.75,2.514-1.125,3.924-1.125
		c0.91,0,1.843,0.182,2.798,0.546s1.75,0.864,2.389,1.5c0.637,0.639,1.126,1.32,1.467,2.048c0.341,0.729,0.625,1.705,0.852,2.936
		l5.187,29.342c0.091,0.501,0.159,0.957,0.205,1.365c0.045,0.409,0.068,0.796,0.068,1.16c0,1.047-0.194,2.013-0.58,2.901
		c-0.386,0.886-0.91,1.647-1.568,2.284c-0.661,0.637-1.445,1.149-2.355,1.536c-0.91,0.387-1.864,0.581-2.866,0.581
		c-1.911,0-3.551-0.524-4.914-1.57c-1.364-1.046-2.207-2.434-2.524-4.163l-1.706-8.53l-2.935,8.054
		c-1.501,4.139-4.071,6.21-7.711,6.21c-1.866,0-3.412-0.49-4.64-1.467c-1.228-0.979-2.23-2.537-3.002-4.675l-3.003-8.122
		l-1.228,7.234c-0.364,2.184-1.218,3.901-2.559,5.152c-1.343,1.251-2.992,1.877-4.947,1.877c-2.23,0-4.05-0.763-5.459-2.287
		c-1.41-1.523-2.115-3.491-2.115-5.902c0-0.318,0.011-0.625,0.032-0.922c0.024-0.295,0.059-0.603,0.104-0.922l5.186-29.137
		c0.364-2.186,1.194-3.901,2.49-5.152c1.298-1.251,2.923-1.877,4.88-1.877c1.591,0,3.082,0.455,4.47,1.363
		c1.387,0.911,2.399,2.139,3.036,3.686l6.756,15.081L164.727,4.774"/>
	<path fill="#00AEEF" d="M204.141,47.767c-2.41,0-4.663-0.295-6.754-0.888c-2.092-0.592-3.913-1.411-5.459-2.456
		c-1.546-1.047-2.753-2.264-3.617-3.651c-0.865-1.388-1.297-2.898-1.297-4.538c0-0.955,0.17-1.843,0.512-2.661
		c0.341-0.819,0.819-1.535,1.432-2.148c0.614-0.616,1.342-1.104,2.185-1.468c0.842-0.364,1.741-0.547,2.695-0.547
		c0.911,0,1.787,0.171,2.628,0.512c0.841,0.342,1.74,0.898,2.694,1.673c0.82,0.637,1.479,1.137,1.979,1.501s0.91,0.648,1.227,0.854
		c0.32,0.205,0.593,0.329,0.82,0.374c0.229,0.046,0.479,0.068,0.752,0.068c0.591,0,1.057-0.181,1.399-0.546
		c0.341-0.363,0.512-0.841,0.512-1.434c0-0.772-0.388-1.41-1.16-1.91c-0.092-0.046-0.194-0.103-0.308-0.17
		c-0.114-0.068-0.273-0.148-0.479-0.239c-0.204-0.091-0.478-0.205-0.819-0.341c-0.34-0.137-0.806-0.318-1.398-0.547
		c-0.637-0.227-1.252-0.443-1.841-0.646c-0.591-0.206-1.207-0.422-1.844-0.649c-6.596-2.321-9.896-6.641-9.896-12.965
		c0-2.229,0.411-4.254,1.23-6.073c0.817-1.82,1.955-3.391,3.411-4.709c1.456-1.32,3.219-2.344,5.289-3.072
		c2.071-0.727,4.332-1.09,6.79-1.09c2.047,0,3.958,0.26,5.733,0.784c1.774,0.522,3.321,1.228,4.64,2.114
		c1.319,0.887,2.354,1.935,3.105,3.139c0.751,1.207,1.127,2.516,1.127,3.926c0,1.819-0.547,3.309-1.639,4.47
		c-1.092,1.158-2.502,1.739-4.23,1.739c-1.047,0-2.024-0.193-2.934-0.581c-0.91-0.386-2.003-1.057-3.276-2.013
		c-0.775-0.635-1.387-1.067-1.843-1.297c-0.455-0.227-0.888-0.34-1.297-0.34c-0.5,0-0.921,0.17-1.262,0.511
		c-0.341,0.342-0.512,0.763-0.512,1.264c0,0.682,0.308,1.229,0.92,1.637c0.616,0.411,1.81,0.909,3.584,1.502
		c1.955,0.591,3.798,1.308,5.527,2.148c1.729,0.843,3.116,1.719,4.163,2.627c1.41,1.185,2.524,2.719,3.344,4.607
		c0.818,1.889,1.229,3.924,1.229,6.107c0,2.047-0.377,4.015-1.127,5.903c-0.75,1.887-1.809,3.536-3.172,4.946
		c-1.549,1.549-3.356,2.696-5.427,3.446C209.409,47.392,206.963,47.767,204.141,47.767"/>
	<path fill="#00AEEF" d="M231.199,15.079c-1.319,0-2.422-0.159-3.31-0.477c-0.886-0.32-1.671-0.82-2.354-1.502
		c-1.41-1.502-2.116-3.161-2.116-4.981c0-1.319,0.376-2.571,1.126-3.754s1.673-2.024,2.765-2.524
		c0.409-0.182,0.773-0.319,1.093-0.41c0.317-0.092,0.749-0.158,1.296-0.205c0.546-0.045,1.262-0.078,2.149-0.102
		c0.887-0.022,2.081-0.035,3.583-0.035h15.148c1.046,0,1.864,0,2.456,0c0.593,0,1.048,0,1.366,0s0.558,0.013,0.717,0.035
		c0.158,0.023,0.352,0.057,0.579,0.102c1.82,0.229,3.298,0.979,4.437,2.253c1.137,1.273,1.704,2.797,1.704,4.571
		c0,1.001-0.215,1.979-0.647,2.935c-0.433,0.956-1.034,1.774-1.808,2.457c-1.184,1.092-3.116,1.638-5.801,1.638h-3.343v22.656
		c0,1.364-0.093,2.479-0.274,3.344c-0.183,0.864-0.521,1.683-1.024,2.458c-0.681,1.09-1.557,1.931-2.625,2.523
		c-1.07,0.59-2.266,0.888-3.584,0.888c-1.274,0-2.445-0.272-3.514-0.82c-1.069-0.545-1.968-1.319-2.694-2.32
		c-0.502-0.772-0.843-1.569-1.025-2.389c-0.182-0.817-0.272-2.001-0.272-3.546V15.079H231.199"/>
	<path fill="#00AEEF" d="M271.689,40.669c-0.954,2.229-2.035,3.834-3.241,4.812c-1.204,0.977-2.717,1.467-4.537,1.467
		c-1.047,0-2.023-0.194-2.935-0.581c-0.909-0.387-1.693-0.921-2.354-1.603c-0.659-0.684-1.184-1.479-1.569-2.39
		c-0.387-0.91-0.579-1.887-0.579-2.934c0-1.273,0.317-2.593,0.954-3.958l14.262-30.232c0.637-1.408,1.571-2.512,2.799-3.309
		c1.229-0.795,2.593-1.193,4.095-1.193c1.546,0,2.934,0.398,4.161,1.193c1.23,0.797,2.184,1.922,2.867,3.378l14.331,30.573
		c0.592,1.136,0.887,2.342,0.887,3.615c0,1.045-0.205,2.015-0.613,2.9c-0.41,0.888-0.956,1.672-1.64,2.355
		c-0.682,0.682-1.479,1.216-2.389,1.603c-0.909,0.387-1.887,0.581-2.934,0.581c-1.728,0-3.173-0.467-4.332-1.4
		c-1.16-0.933-2.265-2.559-3.311-4.879H271.689"/>
	<path fill="#00AEEF" d="M336.893,34.732c0.5,0.773,0.864,1.581,1.093,2.422c0.227,0.843,0.34,1.648,0.34,2.424
		c0,1.046-0.193,2.013-0.579,2.899c-0.387,0.887-0.922,1.661-1.604,2.319c-0.683,0.66-1.479,1.184-2.389,1.57
		c-0.909,0.387-1.888,0.581-2.934,0.581c-2.73,0-4.8-1.161-6.21-3.482l-6.21-10.303v6.21c0,1.092-0.193,2.092-0.58,3.002
		c-0.388,0.911-0.91,1.706-1.569,2.39c-0.66,0.682-1.434,1.216-2.319,1.603c-0.889,0.387-1.855,0.581-2.902,0.581
		c-1.137,0-2.228-0.24-3.274-0.717c-1.047-0.479-1.911-1.149-2.594-2.014c-1.182-1.501-1.773-3.64-1.773-6.415V9.757
		c0-1.638,0.182-2.969,0.546-3.993c0.364-1.023,1-1.921,1.91-2.696c0.864-0.771,1.763-1.296,2.696-1.569
		c0.932-0.272,2.309-0.409,4.129-0.409h6.277c1.865,0,3.299,0.059,4.3,0.172c1.001,0.114,1.999,0.284,3.002,0.511
		c1.774,0.501,3.39,1.252,4.846,2.252c1.454,1.003,2.705,2.196,3.753,3.584c1.046,1.387,1.864,2.923,2.456,4.606
		c0.592,1.683,0.888,3.435,0.888,5.254c0,2.185-0.377,4.174-1.127,5.971s-1.99,3.674-3.72,5.63L336.893,34.732"/>
	<path fill="#00AEEF" d="M348.868,15.079c-1.319,0-2.423-0.159-3.31-0.477c-0.888-0.32-1.672-0.82-2.354-1.502
		c-1.41-1.502-2.115-3.161-2.115-4.981c0-1.319,0.375-2.571,1.126-3.754c0.749-1.183,1.672-2.024,2.764-2.524
		c0.409-0.182,0.774-0.319,1.092-0.41c0.318-0.092,0.751-0.158,1.297-0.205c0.545-0.045,1.262-0.078,2.149-0.102
		c0.887-0.022,2.081-0.035,3.582-0.035h15.149c1.048,0,1.865,0,2.457,0s1.047,0,1.364,0c0.318,0,0.559,0.013,0.718,0.035
		c0.159,0.023,0.352,0.057,0.58,0.102c1.819,0.229,3.297,0.979,4.434,2.253c1.139,1.273,1.707,2.797,1.707,4.571
		c0,1.001-0.216,1.979-0.648,2.935c-0.432,0.956-1.035,1.774-1.809,2.457c-1.183,1.092-3.116,1.638-5.801,1.638h-3.343v22.656
		c0,1.364-0.092,2.479-0.272,3.344c-0.183,0.864-0.523,1.683-1.024,2.458c-0.682,1.09-1.559,1.931-2.627,2.523
		c-1.068,0.59-2.263,0.888-3.583,0.888c-1.273,0-2.445-0.272-3.514-0.82c-1.07-0.545-1.968-1.319-2.695-2.32
		c-0.501-0.772-0.843-1.569-1.024-2.389c-0.182-0.817-0.272-2.001-0.272-3.546V15.079H348.868"/>
	<path fill="#00AEEF" d="M403.288,32.549c1.639,0,2.899,0.125,3.788,0.375c0.887,0.251,1.717,0.694,2.49,1.33
		c1.638,1.41,2.457,3.186,2.457,5.324c0,1.046-0.216,2.06-0.649,3.035c-0.433,0.979-1.034,1.786-1.808,2.423
		c-0.363,0.318-0.739,0.58-1.127,0.785c-0.385,0.205-0.806,0.364-1.262,0.478c-0.455,0.114-0.99,0.193-1.604,0.239
		c-0.613,0.045-1.353,0.068-2.217,0.068h-11.668c-1.729,0-2.958-0.046-3.685-0.135c-0.729-0.094-1.411-0.252-2.049-0.479
		c-2.412-1.002-3.844-2.821-4.299-5.459c-0.047-0.229-0.093-0.444-0.137-0.648c-0.045-0.206-0.079-0.467-0.104-0.785
		c-0.021-0.317-0.031-0.705-0.031-1.16c0-0.5,0-1.138,0-1.911V11.326c0-0.956,0.01-1.729,0.031-2.321
		c0.024-0.59,0.059-1.08,0.104-1.468c0.044-0.385,0.114-0.714,0.204-0.989c0.091-0.272,0.205-0.591,0.342-0.955
		c0.319-0.864,0.808-1.614,1.468-2.252c0.659-0.638,1.376-1.137,2.149-1.5c0.408-0.182,0.772-0.319,1.092-0.41
		c0.318-0.092,0.693-0.158,1.126-0.205c0.432-0.045,0.979-0.078,1.637-0.102c0.66-0.022,1.536-0.035,2.628-0.035h9.007
		c1.093,0,1.957,0,2.594,0c0.638,0,1.138,0.023,1.501,0.069s0.66,0.091,0.888,0.137c0.228,0.044,0.478,0.091,0.751,0.136
		c1.593,0.41,2.855,1.205,3.786,2.389c0.933,1.182,1.4,2.57,1.4,4.162c0,1.093-0.218,2.127-0.648,3.105
		c-0.433,0.978-1.035,1.785-1.81,2.423c-0.683,0.593-1.455,1.011-2.32,1.263c-0.864,0.25-2.002,0.375-3.411,0.375h-7.506v3.137
		h5.936c1.867,0,3.345,0.502,4.436,1.503c1.093,1.002,1.639,2.297,1.639,3.89c0,1.773-0.66,3.208-1.978,4.3
		c-0.594,0.454-1.219,0.762-1.879,0.921c-0.658,0.159-1.58,0.239-2.764,0.239h-5.39v3.412H403.288"/>
	<path fill="#00AEEF" d="M447.882,34.732c0.501,0.773,0.864,1.581,1.093,2.422c0.227,0.843,0.341,1.648,0.341,2.424
		c0,1.046-0.194,2.013-0.579,2.899c-0.387,0.887-0.923,1.661-1.605,2.319c-0.682,0.66-1.479,1.184-2.388,1.57
		c-0.91,0.387-1.888,0.581-2.935,0.581c-2.73,0-4.799-1.161-6.21-3.482l-6.21-10.303v6.21c0,1.092-0.192,2.092-0.58,3.002
		c-0.385,0.911-0.908,1.706-1.569,2.39c-0.66,0.682-1.433,1.216-2.319,1.603c-0.889,0.387-1.854,0.581-2.901,0.581
		c-1.138,0-2.229-0.24-3.274-0.717c-1.047-0.479-1.912-1.149-2.595-2.014c-1.183-1.501-1.773-3.64-1.773-6.415V9.757
		c0-1.638,0.182-2.969,0.546-3.993c0.365-1.023,1.002-1.921,1.91-2.696c0.865-0.771,1.764-1.296,2.695-1.569
		c0.934-0.272,2.311-0.409,4.129-0.409h6.278c1.865,0,3.298,0.059,4.3,0.172c1,0.114,2.002,0.284,3.002,0.511
		c1.774,0.501,3.39,1.252,4.846,2.252c1.455,1.003,2.707,2.196,3.752,3.584c1.047,1.387,1.866,2.923,2.457,4.606
		c0.592,1.683,0.889,3.435,0.889,5.254c0,2.185-0.376,4.174-1.126,5.971c-0.753,1.797-1.991,3.674-3.72,5.63L447.882,34.732"/>
</g>
<g>
	<path fill="#414042" d="M188.462,62.862h7.202c1.596,0,2.956,0.562,4.078,1.684c1.122,1.122,1.683,2.481,1.683,4.077
		c0,1.417-0.444,2.646-1.332,3.691c0.384,0.24,0.75,0.528,1.098,0.864c1.116,1.128,1.674,2.49,1.674,4.087
		c0,1.596-0.562,2.955-1.684,4.077c-1.122,1.123-2.481,1.684-4.078,1.684h-8.642c-0.396,0-0.735-0.141-1.017-0.423
		c-0.282-0.282-0.423-0.621-0.423-1.018V64.303c0-0.396,0.141-0.735,0.423-1.018C187.727,63.003,188.066,62.862,188.462,62.862z
		 M195.664,71.504c0.792,0,1.47-0.282,2.035-0.846c0.564-0.564,0.846-1.242,0.846-2.035c0-0.792-0.282-1.47-0.846-2.034
		c-0.564-0.563-1.243-0.846-2.035-0.846h-5.761v5.761H195.664z M197.104,80.146c0.792,0,1.47-0.281,2.034-0.846
		s0.846-1.242,0.846-2.034c0-0.793-0.282-1.471-0.846-2.035c-0.564-0.563-1.242-0.846-2.034-0.846h-7.202v5.761H197.104z"/>
	<path fill="#414042" d="M208.626,90.228c0,0.396-0.141,0.735-0.423,1.018c-0.282,0.282-0.621,0.423-1.018,0.423
		c-0.396,0-0.735-0.141-1.017-0.423c-0.282-0.282-0.423-0.621-0.423-1.018V72.944c0-2.784,0.984-5.161,2.953-7.13
		c1.968-1.968,4.344-2.952,7.129-2.952c2.784,0,5.16,0.984,7.129,2.952c1.969,1.969,2.953,4.346,2.953,7.13s-0.984,5.161-2.953,7.13
		c-1.969,1.968-4.345,2.952-7.129,2.952c-2.785,0-5.161-0.984-7.129-2.952c-0.024-0.024-0.048-0.048-0.072-0.072V90.228z
		 M208.626,72.944c0,1.992,0.702,3.69,2.106,5.095c1.404,1.404,3.103,2.106,5.095,2.106s3.691-0.702,5.096-2.106
		s2.105-3.103,2.105-5.095s-0.701-3.69-2.105-5.095s-3.104-2.106-5.096-2.106s-3.691,0.702-5.095,2.106
		C209.329,69.254,208.626,70.952,208.626,72.944z"/>
	<path fill="#414042" d="M244.418,78.129c0.396,0,0.735,0.142,1.018,0.424c0.281,0.282,0.423,0.621,0.423,1.017
		c0,0.396-0.138,0.738-0.414,1.026c-1.86,1.62-4.051,2.431-6.571,2.431c-2.785,0-5.161-0.984-7.13-2.952
		c-1.968-1.969-2.952-4.346-2.952-7.13s0.984-5.161,2.952-7.13c1.969-1.968,4.345-2.952,7.13-2.952c2.784,0,5.161,0.984,7.13,2.952
		c1.968,1.969,2.952,4.346,2.952,7.13c0,0.396-0.142,0.735-0.423,1.018c-0.282,0.281-0.621,0.423-1.018,0.423h-15.717
		c0.264,1.38,0.924,2.599,1.98,3.654c1.404,1.404,3.103,2.106,5.095,2.106c1.801,0,3.349-0.569,4.645-1.71
		C243.782,78.231,244.082,78.129,244.418,78.129z M245.948,71.504c-0.264-1.38-0.924-2.599-1.98-3.654
		c-1.404-1.404-3.103-2.106-5.095-2.106s-3.69,0.702-5.095,2.106c-1.057,1.056-1.717,2.274-1.98,3.654H245.948z"/>
	<path fill="#414042" d="M263.395,81.965l-4.357-13.09l-4.446,13.342c-0.072,0.144-0.169,0.281-0.288,0.414
		c-0.288,0.275-0.631,0.413-1.026,0.413c-0.396,0-0.735-0.141-1.018-0.423c-0.282-0.281-0.423-0.621-0.423-1.017
		c0-0.192,0.036-0.379,0.107-0.559l5.744-17.247c0.071-0.181,0.186-0.354,0.342-0.522c0.275-0.264,0.612-0.396,1.008-0.396
		c0.396,0,0.738,0.133,1.026,0.396c0.145,0.168,0.252,0.342,0.324,0.522l4.411,13.25l4.41-13.25
		c0.072-0.181,0.187-0.354,0.343-0.522c0.275-0.264,0.612-0.396,1.008-0.396c0.396,0,0.738,0.133,1.026,0.396
		c0.144,0.168,0.252,0.342,0.324,0.522l5.743,17.247c0.072,0.18,0.107,0.366,0.107,0.559c0,0.396-0.141,0.735-0.423,1.017
		c-0.282,0.282-0.621,0.423-1.017,0.423c-0.396,0-0.732-0.138-1.009-0.413c-0.132-0.133-0.233-0.271-0.306-0.414l-4.447-13.342
		l-4.356,13.09c-0.072,0.252-0.198,0.474-0.378,0.666c-0.288,0.275-0.631,0.413-1.026,0.413c-0.396,0-0.732-0.138-1.009-0.413
		C263.61,82.438,263.479,82.217,263.395,81.965z"/>
	<path fill="#414042" d="M294.324,62.862c0.396,0,0.735,0.141,1.018,0.423c0.281,0.282,0.423,0.621,0.423,1.018v17.283
		c0,0.396-0.142,0.735-0.423,1.018c-0.282,0.282-0.621,0.423-1.018,0.423c-0.396,0-0.735-0.141-1.018-0.423
		c-0.281-0.282-0.423-0.621-0.423-1.018v-7.201h-4.32c-0.793,0-1.471,0.282-2.035,0.846c-0.228,0.229-0.408,0.475-0.54,0.738
		l-3.294,6.157c-0.072,0.181-0.175,0.336-0.307,0.469c-0.288,0.288-0.63,0.432-1.026,0.432c-0.396,0-0.735-0.141-1.017-0.423
		c-0.282-0.282-0.424-0.621-0.424-1.018c0-0.3,0.078-0.563,0.234-0.792l3.276-6.193c0.192-0.36,0.427-0.702,0.702-1.026
		c-0.384-0.24-0.744-0.534-1.08-0.882c-1.128-1.116-1.692-2.473-1.692-4.069c0-1.596,0.562-2.955,1.684-4.077
		s2.481-1.684,4.078-1.684H294.324z M292.884,71.504v-5.761h-5.761c-0.792,0-1.471,0.282-2.034,0.846
		c-0.564,0.564-0.847,1.242-0.847,2.034c0,0.793,0.282,1.471,0.847,2.035c0.563,0.563,1.242,0.846,2.034,0.846H292.884z"/>
	<path fill="#414042" d="M310.344,64.303c0-0.396,0.141-0.735,0.423-1.018s0.621-0.423,1.018-0.423c0.396,0,0.734,0.141,1.017,0.423
		s0.424,0.621,0.424,1.018v1.17c1.8-1.74,3.96-2.61,6.481-2.61c2.58,0,4.785,0.915,6.616,2.745c1.83,1.831,2.745,4.036,2.745,6.616
		v9.362c0,0.396-0.141,0.735-0.423,1.018s-0.621,0.423-1.018,0.423c-0.396,0-0.735-0.141-1.017-0.423
		c-0.282-0.282-0.424-0.621-0.424-1.018v-9.362c0-1.788-0.633-3.315-1.899-4.581c-1.266-1.267-2.793-1.899-4.581-1.899
		c-1.789,0-3.316,0.633-4.582,1.899c-1.267,1.266-1.899,2.793-1.899,4.581v9.362c0,0.396-0.142,0.735-0.424,1.018
		s-0.621,0.423-1.017,0.423c-0.396,0-0.735-0.141-1.018-0.423s-0.423-0.621-0.423-1.018V64.303z"/>
	<path fill="#414042" d="M334.829,90.228c0,0.396-0.142,0.735-0.424,1.018s-0.621,0.423-1.017,0.423
		c-0.396,0-0.735-0.141-1.018-0.423s-0.423-0.621-0.423-1.018V72.944c0-2.784,0.984-5.161,2.952-7.13
		c1.969-1.968,4.345-2.952,7.13-2.952c2.784,0,5.161,0.984,7.13,2.952c1.968,1.969,2.952,4.346,2.952,7.13s-0.984,5.161-2.952,7.13
		c-1.969,1.968-4.346,2.952-7.13,2.952c-2.785,0-5.161-0.984-7.13-2.952c-0.023-0.024-0.048-0.048-0.071-0.072V90.228z
		 M334.829,72.944c0,1.992,0.702,3.69,2.106,5.095s3.103,2.106,5.095,2.106s3.69-0.702,5.095-2.106s2.106-3.103,2.106-5.095
		s-0.702-3.69-2.106-5.095s-3.103-2.106-5.095-2.106s-3.69,0.702-5.095,2.106S334.829,70.952,334.829,72.944z"/>
	<path fill="#414042" d="M373.717,81.586c0,0.396-0.141,0.735-0.423,1.018s-0.621,0.423-1.018,0.423
		c-0.396,0-0.735-0.141-1.017-0.423c-0.282-0.282-0.424-0.621-0.424-1.018v-1.17c-1.8,1.74-3.96,2.61-6.48,2.61
		c-2.581,0-4.787-0.915-6.617-2.745c-1.83-1.831-2.745-4.036-2.745-6.617v-9.361c0-0.396,0.141-0.735,0.423-1.018
		s0.621-0.423,1.018-0.423c0.396,0,0.734,0.141,1.017,0.423s0.424,0.621,0.424,1.018v9.361c0,1.789,0.633,3.316,1.899,4.582
		c1.266,1.267,2.793,1.899,4.582,1.899c1.788,0,3.315-0.633,4.581-1.899c1.267-1.266,1.899-2.793,1.899-4.582v-9.361
		c0-0.396,0.142-0.735,0.424-1.018c0.281-0.282,0.621-0.423,1.017-0.423c0.396,0,0.735,0.141,1.018,0.423s0.423,0.621,0.423,1.018
		V81.586z"/>
	<path fill="#414042" d="M403.997,64.303c0-0.396,0.142-0.735,0.423-1.018c0.282-0.282,0.621-0.423,1.018-0.423
		s0.735,0.141,1.018,0.423s0.423,0.621,0.423,1.018v17.283c0,0.396-0.141,0.735-0.423,1.018s-0.621,0.423-1.018,0.423
		s-0.735-0.141-1.018-0.423c-0.281-0.282-0.423-0.621-0.423-1.018l0.001-0.378c-1.429,1.213-3.109,1.818-5.042,1.818
		c-2.185,0-4.051-0.773-5.599-2.321c-0.324-0.324-0.618-0.666-0.882-1.026c-0.265,0.36-0.559,0.702-0.883,1.026
		c-1.548,1.548-3.415,2.321-5.599,2.321c-2.185,0-4.051-0.774-5.6-2.322c-1.548-1.549-2.322-3.415-2.322-5.6V64.303
		c0-0.396,0.141-0.735,0.423-1.018s0.621-0.423,1.018-0.423c0.396,0,0.734,0.141,1.017,0.423s0.424,0.621,0.424,1.018v10.802
		c0,1.393,0.491,2.581,1.476,3.565c0.984,0.983,2.173,1.476,3.565,1.476c1.392,0,2.58-0.492,3.564-1.476
		c0.984-0.984,1.477-2.173,1.477-3.565V64.303c0-0.396,0.141-0.735,0.423-1.018s0.621-0.423,1.018-0.423
		c0.396,0,0.734,0.141,1.017,0.423s0.423,0.621,0.423,1.018v10.802c0,1.393,0.492,2.581,1.477,3.565
		c0.984,0.983,2.173,1.476,3.564,1.476c1.393,0,2.581-0.492,3.565-1.476c0.983-0.984,1.476-2.173,1.476-3.565V64.303z"/>
	<path fill="#414042" d="M420.381,63.654l7.994,17.409c0.071,0.169,0.107,0.354,0.107,0.559c0,0.396-0.141,0.735-0.423,1.018
		s-0.621,0.423-1.018,0.423c-0.396,0-0.732-0.138-1.008-0.414c-0.108-0.096-0.204-0.222-0.288-0.378l-6.625-14.475l-6.626,14.475
		c-0.084,0.156-0.174,0.282-0.27,0.378c-0.288,0.276-0.631,0.414-1.026,0.414c-0.396,0-0.735-0.141-1.018-0.423
		s-0.423-0.621-0.423-1.018c0-0.204,0.036-0.39,0.107-0.559l7.994-17.409c0.072-0.156,0.15-0.27,0.234-0.342
		c0.264-0.276,0.605-0.414,1.026-0.414c0.42,0,0.762,0.132,1.025,0.396C420.23,63.378,420.309,63.498,420.381,63.654z"/>
	<path fill="#414042" d="M449.315,72.944c0,2.784-0.984,5.161-2.952,7.13c-1.969,1.968-4.346,2.952-7.13,2.952
		c-2.785,0-5.161-0.984-7.13-2.952c-1.968-1.969-2.952-4.346-2.952-7.13s0.984-5.161,2.952-7.13c1.969-1.968,4.345-2.952,7.13-2.952
		c2.784,0,5.161,0.984,7.13,2.952C448.331,67.783,449.315,70.16,449.315,72.944z M439.233,65.743c-1.992,0-3.69,0.702-5.095,2.106
		s-2.106,3.103-2.106,5.095s0.702,3.69,2.106,5.095s3.103,2.106,5.095,2.106s3.69-0.702,5.095-2.106s2.106-3.103,2.106-5.095
		s-0.702-3.69-2.106-5.095S441.226,65.743,439.233,65.743z"/>
</g>
<path fill-rule="evenodd" clip-rule="evenodd" fill="#414042" d="M83.752,22.199c-1.145-0.492-2.305-0.893-3.477-1.219
	c-0.297-2.057-0.902-4.009-1.775-5.814c0.802-0.923,1.559-1.908,2.27-2.971c-1.002-1.686-2.148-3.306-3.524-4.685
	c-1.216,0.364-2.396,0.823-3.53,1.348c-1.489-1.313-3.17-2.409-5.003-3.237c0.026-1.26-0.03-2.536-0.175-3.85
	c-1.848-0.648-3.756-1.154-5.707-1.331c-0.721,1.099-1.353,2.254-1.898,3.425c-0.146-0.003-0.287-0.021-0.434-0.021
	c-1.851,0-3.635,0.271-5.336,0.742c-0.811-1.024-1.706-2.024-2.676-2.935c-1.852,0.653-3.618,1.548-5.249,2.642
	c0.156,1.339,0.428,2.669,0.771,3.943c-1.494,1.197-2.812,2.603-3.91,4.176c-1.299-0.271-2.651-0.467-4.002-0.541
	c-0.996,1.696-1.784,3.512-2.321,5.399c0.978,0.925,2.045,1.772,3.13,2.526c-0.27,1.309-0.412,2.664-0.412,4.053
	c0,0.562,0.038,1.116,0.084,1.668c-1.169,0.626-2.316,1.344-3.394,2.151c0.292,1.934,0.912,3.809,1.666,5.616
	c1.365,0.066,2.685,0.046,3.979-0.065c0.92,1.731,2.083,3.312,3.45,4.694c-0.475,1.199-0.875,2.445-1.177,3.724
	c1.458,1.291,3.144,2.333,4.886,3.23c1.048-0.793,2.014-1.632,2.911-2.517c1.813,0.746,3.761,1.23,5.797,1.413
	c0.4,1.181,0.881,2.345,1.453,3.49c1.954,0.029,3.903-0.217,5.806-0.677c0.283-1.24,0.483-2.449,0.603-3.662
	c1.971-0.626,3.802-1.556,5.455-2.723c1.039,0.621,2.12,1.176,3.278,1.686c1.509-1.244,2.848-2.667,4-4.247
	c-0.573-1.117-1.188-2.157-1.865-3.153c1.083-1.72,1.905-3.614,2.425-5.634c1.188-0.192,2.368-0.46,3.575-0.812
	C83.771,26.108,83.902,24.146,83.752,22.199z M71.37,27.382l-5.594,0.302l1.441,5.414l-4.703-3.046L60.5,35.28l-2.017-5.229
	l-4.702,3.046l1.439-5.414l-5.594-0.302l4.35-3.532l-4.35-3.534l5.594-0.3l-1.439-5.413l4.702,3.045l2.017-5.229l2.015,5.229
	l4.703-3.045l-1.441,5.413l5.594,0.3l-4.349,3.534L71.37,27.382z"/>
<path fill-rule="evenodd" clip-rule="evenodd" fill="#414042" d="M130.361,25.67c0.145-1.95,0.069-3.915-0.283-5.835
	c-1.189-0.37-2.385-0.647-3.584-0.849c-0.512-2.024-1.323-3.91-2.386-5.619c0.7-1.001,1.365-2.042,1.96-3.17
	c-1.172-1.571-2.481-3.064-3.994-4.293c-1.17,0.49-2.297,1.07-3.37,1.711c-1.618-1.151-3.404-2.066-5.314-2.697
	c-0.105-1.257-0.296-2.52-0.576-3.811c-1.906-0.454-3.856-0.756-5.814-0.729c-0.603,1.168-1.11,2.384-1.531,3.605
	c-0.146,0.012-0.288,0.008-0.434,0.023c-1.84,0.193-3.586,0.649-5.229,1.295c-0.914-0.935-1.909-1.837-2.968-2.64
	c-1.774,0.843-3.438,1.918-4.945,3.175c0.294,1.316,0.704,2.61,1.179,3.842c-1.362,1.347-2.525,2.883-3.454,4.562
	c-1.32-0.134-2.686-0.187-4.035-0.12c-0.814,1.791-1.408,3.679-1.746,5.611c1.069,0.819,2.218,1.549,3.376,2.187
	c-0.131,1.33-0.131,2.692,0.014,4.074c0.059,0.56,0.155,1.105,0.258,1.649c-1.097,0.744-2.164,1.578-3.15,2.493
	c0.491,1.893,1.305,3.694,2.243,5.412c1.365-0.075,2.675-0.233,3.95-0.479c1.096,1.626,2.418,3.076,3.922,4.308
	c-0.347,1.242-0.615,2.523-0.781,3.826c1.585,1.132,3.37,1.992,5.196,2.702c0.959-0.897,1.833-1.833,2.632-2.807
	c1.882,0.553,3.869,0.831,5.913,0.8c0.521,1.133,1.121,2.24,1.811,3.32c1.944-0.176,3.859-0.623,5.703-1.279
	c0.152-1.264,0.225-2.486,0.217-3.706c1.894-0.828,3.618-1.943,5.141-3.277c1.098,0.51,2.231,0.949,3.436,1.335
	c1.371-1.396,2.554-2.951,3.535-4.643c-0.687-1.051-1.407-2.021-2.184-2.939c0.897-1.823,1.517-3.793,1.824-5.856
	C128.053,26.536,129.198,26.146,130.361,25.67z M112.783,27.061l1.998,5.233l-4.995-2.538l-1.458,5.41l-2.551-4.989l-4.359,3.52
	l0.868-5.533l-5.595,0.283l3.956-3.968l-4.693-3.06l5.532-0.882l-1.999-5.234l4.996,2.538l1.459-5.411l2.55,4.99l4.359-3.521
	l-0.868,5.534l5.594-0.285l-3.956,3.969l4.694,3.058L112.783,27.061z"/>
</svg>
