<?xml version="1.0" encoding="utf-8"?>
<!-- Generator: Adobe Illustrator 18.1.0, SVG Export Plug-In . SVG Version: 6.00 Build 0)  -->
<svg version="1.1" id="Layer_1" xmlns="http://www.w3.org/2000/svg" xmlns:xlink="http://www.w3.org/1999/xlink" x="0px" y="0px"
	 viewBox="67.1 161.4 265.8 77.2" enable-background="new 67.1 161.4 265.8 77.2" xml:space="preserve">
<path fill="#FF3654" d="M247.6,172.9c-7.2-7.3-16.9-11.4-27.3-11.5c-0.2,0-0.3,0-0.4,0c-10.3,0-19.8,3.9-27,11.1
	c-7.2,7.2-11.3,16.9-11.4,27.4c-0.1,10.2,3.8,19.8,10.8,27.1c7.2,7.4,16.9,11.5,27.5,11.6h0.3c21.4,0,38.3-16.8,38.4-38.3
	C258.6,189.9,254.7,180.3,247.6,172.9z M236.7,216.7L236.7,216.7c-3.1,3.1-7.8,4.3-13.2,3.4c-5.4-1-10.7-3.9-15.1-8.3
	c-9.2-9.2-11.4-22-5-28.4l0.1-0.1c3.1-3.1,7.9-4.3,13.3-3.3c5.4,1,10.8,3.9,15.2,8.3c4.4,4.4,7.3,9.8,8.2,15.2
	C241,208.9,239.7,213.5,236.7,216.7z"/>
<polygon fill="#FF3654" points="328.9,238.6 324.7,238.6 287,198.7 286.9,238.6 268.1,238.6 268,161.4 275.5,161.4 313.9,199.4 
	314,161.4 332.8,161.4 332.9,238.6 328.9,238.6 "/>
<path fill="#FF3654" d="M93.1,238.6c-5.8-0.2-10.9-1.2-15.5-3.1c-2.7-1.2-7.3-4.3-10.6-7.1c1.9-3.5,6.7-11.6,8.3-14.6
	c2.2,1.5,8,5,9.1,5.6c2.7,1.4,5.4,2.1,8.2,2.2c0.1,0,0.2,0,0.2,0c1.7,0,3-0.4,4-1.2c1.4-1.1,2-2.5,1.8-4.3c-0.2-1.5-0.9-2.8-2.5-4.2
	c-1.7-1.5-3.7-2.6-5.7-3.6c-0.9-0.5-1.7-0.9-2.5-1.3c-2.1-1.1-4.2-2.2-6.4-3.3c-3.1-1.7-5.9-3.8-8.1-6.2c-2.7-2.9-4.4-6.1-5.1-9.5
	c-1.6-8.2,0.8-15.1,6.9-20.5c2.9-2.6,6.5-4.3,10.9-5.3c2.3-0.5,4.5-0.8,6.7-0.8c0.2,0,0.4,0,0.6,0c4.5,0.1,8.9,1,13.1,2.7
	c3.2,1.3,6.3,3,9.1,5.1c2.1,1.5,3,2.4,3,2.4s-9.3,14.3-9.6,14.6c-1.6-1.3-4-2.8-4.4-3c-3.2-2.1-5.8-3.4-8.4-4.2
	c-1.6-0.5-2.9-0.7-4.1-0.7c-0.5,0-0.9,0.1-1.3,0.1c-1.3,0.2-2.4,0.8-3,1.7c-0.7,0.9-0.9,2-0.7,3.2c0.2,0.8,0.6,1.4,1.5,2.3
	c1.2,1.2,2.7,2.2,4.5,3.1c2,1,3.9,2,5.9,3c1.1,0.6,2.3,1.1,3.4,1.7c2.1,1.1,4.7,2.5,7.2,4.3c3.3,2.5,5.7,5.1,7.3,8.1
	c1,2,1.7,4,2.1,6.2c0.9,5.8-0.3,11.1-3.6,15.9c-2.5,3.6-5.9,6.4-10.1,8.2c-3.1,1.4-6.4,2.2-9.8,2.3c-0.6,0.1-1.2,0.1-1.8,0.1
	l-0.9,0.1L93.1,238.6z"/>
<polygon fill="#FF3654" points="130.8,238.6 130.8,161.4 149.7,161.4 149.7,219.2 176.3,219.2 176.3,238.6 "/>
</svg>
